STARTFONT 2.1
FONT -FontForge-Glass TTY VT220-Medium-R-Normal--24-140-120-120-C-120-ISO10646-1
SIZE 14 120 120
FONTBOUNDINGBOX 12 24 0 -6
COMMENT "Generated by fontforge, http://fontforge.sourceforge.net"
COMMENT "Created by svo with FontForge 2.0 (http://fontforge.sf.net)"
COMMENT ""
COMMENT "Use font size 15 on Windows"
COMMENT "Use font size 20 on Mac/Linux "
STARTPROPERTIES 41
FOUNDRY "FontForge"
FAMILY_NAME "Glass TTY VT220"
WEIGHT_NAME "Medium"
SLANT "R"
SETWIDTH_NAME "Normal"
ADD_STYLE_NAME ""
PIXEL_SIZE 24
POINT_SIZE 140
RESOLUTION_X 120
RESOLUTION_Y 120
SPACING "C"
AVERAGE_WIDTH 120
CHARSET_REGISTRY "ISO10646"
CHARSET_ENCODING "1"
FONTNAME_REGISTRY ""
CHARSET_COLLECTIONS "ISO8859-5 ISO10646-1"
FONT_NAME "Glass_TTY_VT220"
FACE_NAME "VT220"
COPYRIGHT "Created by svo with FontForge 2.0 (http://fontforge.sf.net)"
FONT_VERSION "001.3"
FONT_ASCENT 19
FONT_DESCENT 5
UNDERLINE_POSITION -3
UNDERLINE_THICKNESS 1
X_HEIGHT 11
CAP_HEIGHT 16
DEFAULT_CHAR 1
RAW_ASCENT 800
RAW_DESCENT 200
NORM_SPACE 12
RELATIVE_WEIGHT 50
RELATIVE_SETWIDTH 50
SUPERSCRIPT_X 0
SUPERSCRIPT_Y 11
SUPERSCRIPT_SIZE 16
SUBSCRIPT_X 0
SUBSCRIPT_Y 3
SUBSCRIPT_SIZE 16
FIGURE_WIDTH 12
AVG_LOWERCASE_WIDTH 120
AVG_UPPERCASE_WIDTH 120
ENDPROPERTIES
CHARS 323
STARTCHAR uni0000
ENCODING 0
SWIDTH 500 0
DWIDTH 12 0
BBX 9 16 0 1
BITMAP
7F00
0000
0000
C180
0000
7800
0000
0C00
0C00
0000
0C00
0000
0000
0000
0000
0C00
ENDCHAR
STARTCHAR uni0001
ENCODING 1
SWIDTH 500 0
DWIDTH 12 0
BBX 7 16 1 1
BITMAP
18
00
00
7C
00
FE
00
7C
3E
00
FE
00
7C
00
00
18
ENDCHAR
STARTCHAR uni0002
ENCODING 2
SWIDTH 500 0
DWIDTH 12 0
BBX 10 16 0 1
BITMAP
CDC0
0000
0000
6300
0000
CDC0
0000
6300
6300
0000
CDC0
0000
7300
0000
0000
CD80
ENDCHAR
STARTCHAR uni0003
ENCODING 3
SWIDTH 500 0
DWIDTH 12 0
BBX 10 21 0 -4
BITMAP
CC00
0000
0000
CC00
0000
FC00
0000
CC00
CC00
0000
FFC0
0000
0600
0000
0000
0600
0000
0600
0000
0600
0600
ENDCHAR
STARTCHAR uni0004
ENCODING 4
SWIDTH 500 0
DWIDTH 12 0
BBX 10 21 0 -4
BITMAP
FC00
0000
0000
C000
0000
F800
0000
C000
C000
0000
CFC0
0000
0C00
0000
0000
0F00
0000
0C00
0000
0C00
0C00
ENDCHAR
STARTCHAR uni0005
ENCODING 5
SWIDTH 500 0
DWIDTH 12 0
BBX 10 21 0 -4
BITMAP
7C00
0000
0000
C000
0000
C000
0000
C000
C000
0000
7F00
0000
0DC0
0000
0000
0F00
0000
0DC0
0000
0D80
0D80
ENDCHAR
STARTCHAR uni0006
ENCODING 6
SWIDTH 500 0
DWIDTH 12 0
BBX 10 21 0 -4
BITMAP
C000
0000
0000
C000
0000
C000
0000
C000
C000
0000
FFC0
0000
0C00
0000
0000
0F00
0000
0C00
0000
0C00
0C00
ENDCHAR
STARTCHAR uni0007
ENCODING 7
SWIDTH 500 0
DWIDTH 12 0
BBX 7 6 1 11
BITMAP
7C
00
00
C6
00
7C
ENDCHAR
STARTCHAR uni0008
ENCODING 8
SWIDTH 500 0
DWIDTH 12 0
BBX 9 13 0 1
BITMAP
0C00
0000
0C00
0000
3E00
1F00
0000
0C00
0000
0C00
0000
0000
FF80
ENDCHAR
STARTCHAR uni0009
ENCODING 9
SWIDTH 500 0
DWIDTH 12 0
BBX 9 21 0 -4
BITMAP
C600
0000
0000
F600
0000
FE00
0000
CE00
CE00
0000
CE00
0000
0C00
0000
0000
0C00
0000
0C00
0000
0F80
0F80
ENDCHAR
STARTCHAR uni000A
ENCODING 10
SWIDTH 500 0
DWIDTH 12 0
BBX 10 21 0 -4
BITMAP
C600
0000
0000
C600
0000
7C00
0000
3C00
3C00
0000
3FC0
0000
0600
0000
0000
0600
0000
0600
0000
0600
0600
ENDCHAR
STARTCHAR uni000B
ENCODING 11
SWIDTH 500 0
DWIDTH 12 0
BBX 6 11 0 8
BITMAP
0C
00
0C
00
00
0C
00
0C
00
FC
FC
ENDCHAR
STARTCHAR uni000C
ENCODING 12
SWIDTH 500 0
DWIDTH 12 0
BBX 6 14 0 -4
BITMAP
FC
FC
00
0C
00
0C
00
00
0C
00
0C
00
0C
0C
ENDCHAR
STARTCHAR uni000D
ENCODING 13
SWIDTH 500 0
DWIDTH 12 0
BBX 5 14 4 -4
BITMAP
F8
F8
00
C0
00
C0
00
00
C0
00
C0
00
C0
C0
ENDCHAR
STARTCHAR uni000E
ENCODING 14
SWIDTH 500 0
DWIDTH 12 0
BBX 5 11 4 8
BITMAP
C0
00
C0
00
00
C0
00
C0
00
F8
F8
ENDCHAR
STARTCHAR uni000F
ENCODING 15
SWIDTH 500 0
DWIDTH 12 0
BBX 6 23 2 -4
BITMAP
30
00
30
00
00
30
00
30
00
F8
7C
00
30
00
30
00
00
30
00
30
00
30
30
ENDCHAR
STARTCHAR uni0010
ENCODING 16
SWIDTH 500 0
DWIDTH 12 0
BBX 10 1 0 18
BITMAP
FFC0
ENDCHAR
STARTCHAR uni0011
ENCODING 17
SWIDTH 500 0
DWIDTH 12 0
BBX 9 1 0 13
BITMAP
FF80
ENDCHAR
STARTCHAR uni0012
ENCODING 18
SWIDTH 500 0
DWIDTH 12 0
BBX 6 2 2 8
BITMAP
F8
7C
ENDCHAR
STARTCHAR uni0013
ENCODING 19
SWIDTH 500 0
DWIDTH 12 0
BBX 9 1 0 4
BITMAP
FF80
ENDCHAR
STARTCHAR uni0014
ENCODING 20
SWIDTH 500 0
DWIDTH 12 0
BBX 10 1 0 -1
BITMAP
FFC0
ENDCHAR
STARTCHAR uni0015
ENCODING 21
SWIDTH 500 0
DWIDTH 12 0
BBX 5 23 4 -4
BITMAP
C0
00
C0
00
00
C0
00
C0
00
F8
F8
00
C0
00
C0
00
00
C0
00
C0
00
C0
C0
ENDCHAR
STARTCHAR uni0016
ENCODING 22
SWIDTH 500 0
DWIDTH 12 0
BBX 6 23 0 -4
BITMAP
0C
00
0C
00
00
0C
00
0C
00
FC
FC
00
0C
00
0C
00
00
0C
00
0C
00
0C
0C
ENDCHAR
STARTCHAR uni0017
ENCODING 23
SWIDTH 500 0
DWIDTH 12 0
BBX 6 11 2 8
BITMAP
30
00
30
00
00
30
00
30
00
F8
7C
ENDCHAR
STARTCHAR uni0018
ENCODING 24
SWIDTH 500 0
DWIDTH 12 0
BBX 6 14 2 -4
BITMAP
F8
7C
00
30
00
30
00
00
30
00
30
00
30
30
ENDCHAR
STARTCHAR uni0019
ENCODING 25
SWIDTH 500 0
DWIDTH 12 0
BBX 2 23 4 -4
BITMAP
C0
00
C0
00
00
C0
00
C0
00
C0
C0
00
C0
00
C0
00
00
C0
00
C0
00
C0
C0
ENDCHAR
STARTCHAR uni001A
ENCODING 26
SWIDTH 500 0
DWIDTH 12 0
BBX 10 18 0 -1
BITMAP
01C0
0000
0000
0600
0000
3800
0000
C000
C000
0000
3800
0000
0600
0000
0000
0180
0000
FFC0
ENDCHAR
STARTCHAR uni001B
ENCODING 27
SWIDTH 500 0
DWIDTH 12 0
BBX 10 18 0 -1
BITMAP
C000
0000
0000
1800
0000
0600
0000
0180
0180
0000
0600
0000
3800
0000
0000
C000
0000
FFC0
ENDCHAR
STARTCHAR uni001C
ENCODING 28
SWIDTH 500 0
DWIDTH 12 0
BBX 10 11 0 1
BITMAP
FFC0
0000
1B00
1B00
0000
3B00
0000
3B00
0000
0000
6300
ENDCHAR
STARTCHAR uni001D
ENCODING 29
SWIDTH 500 0
DWIDTH 12 0
BBX 10 16 0 1
BITMAP
01C0
0000
0000
0300
0000
FFC0
0000
0C00
0C00
0000
FFC0
0000
7000
0000
0000
C000
ENDCHAR
STARTCHAR uni001E
ENCODING 30
SWIDTH 500 0
DWIDTH 12 0
BBX 10 18 0 -1
BITMAP
0F00
0000
0000
1980
0000
3800
0000
7A00
3C00
0000
3800
0000
7E00
0000
0000
FBC0
0000
7000
ENDCHAR
STARTCHAR uni001F
ENCODING 31
SWIDTH 500 0
DWIDTH 12 0
BBX 2 2 4 8
BITMAP
C0
C0
ENDCHAR
STARTCHAR space
ENCODING 32
SWIDTH 500 0
DWIDTH 12 0
BBX 1 1 0 0
BITMAP
00
ENDCHAR
STARTCHAR exclam
ENCODING 33
SWIDTH 500 0
DWIDTH 12 0
BBX 2 16 4 1
BITMAP
C0
00
00
C0
00
C0
00
C0
C0
00
C0
00
00
00
00
C0
ENDCHAR
STARTCHAR quotedbl
ENCODING 34
SWIDTH 500 0
DWIDTH 12 0
BBX 6 6 1 11
BITMAP
EC
00
00
CC
00
EC
ENDCHAR
STARTCHAR numbersign
ENCODING 35
SWIDTH 500 0
DWIDTH 12 0
BBX 8 16 0 1
BITMAP
76
00
00
66
00
FF
00
66
66
00
FF
00
76
00
00
66
ENDCHAR
STARTCHAR dollar
ENCODING 36
SWIDTH 500 0
DWIDTH 12 0
BBX 10 16 0 1
BITMAP
0C00
0000
0000
7F00
0000
CC00
0000
3C00
1F00
0000
0DC0
0000
7F00
0000
0000
0C00
ENDCHAR
STARTCHAR percent
ENCODING 37
SWIDTH 500 0
DWIDTH 12 0
BBX 10 16 0 1
BITMAP
71C0
0000
0000
FB00
0000
7600
0000
0C00
0C00
0000
3B00
0000
7780
0000
0000
C300
ENDCHAR
STARTCHAR ampersand
ENCODING 38
SWIDTH 500 0
DWIDTH 12 0
BBX 10 16 0 1
BITMAP
7C00
0000
0000
C600
0000
C600
0000
3C00
3C00
0000
C7C0
0000
C300
0000
0000
7F80
ENDCHAR
STARTCHAR quotesingle
ENCODING 39
SWIDTH 500 0
DWIDTH 12 0
BBX 5 6 2 11
BITMAP
38
00
00
30
00
E0
ENDCHAR
STARTCHAR parenleft
ENCODING 40
SWIDTH 500 0
DWIDTH 12 0
BBX 5 16 2 1
BITMAP
18
00
00
30
00
E0
00
60
60
00
E0
00
30
00
00
18
ENDCHAR
STARTCHAR parenright
ENCODING 41
SWIDTH 500 0
DWIDTH 12 0
BBX 5 16 2 1
BITMAP
E0
00
00
30
00
18
00
18
18
00
18
00
30
00
00
60
ENDCHAR
STARTCHAR asterisk
ENCODING 42
SWIDTH 500 0
DWIDTH 12 0
BBX 7 10 1 4
BITMAP
C6
00
7C
00
7C
3E
00
7C
00
C6
ENDCHAR
STARTCHAR plus
ENCODING 43
SWIDTH 500 0
DWIDTH 12 0
BBX 6 10 2 4
BITMAP
30
00
30
00
F8
7C
00
30
00
30
ENDCHAR
STARTCHAR comma
ENCODING 44
SWIDTH 500 0
DWIDTH 12 0
BBX 5 6 1 -1
BITMAP
78
00
00
30
00
E0
ENDCHAR
STARTCHAR hyphen
ENCODING 45
SWIDTH 500 0
DWIDTH 12 0
BBX 6 2 2 8
BITMAP
F8
7C
ENDCHAR
STARTCHAR period
ENCODING 46
SWIDTH 500 0
DWIDTH 12 0
BBX 4 4 2 1
BITMAP
F0
00
00
F0
ENDCHAR
STARTCHAR slash
ENCODING 47
SWIDTH 500 0
DWIDTH 12 0
BBX 10 16 0 1
BITMAP
01C0
0000
0000
0300
0000
0600
0000
0C00
0C00
0000
3800
0000
7000
0000
0000
C000
ENDCHAR
STARTCHAR zero
ENCODING 48
SWIDTH 500 0
DWIDTH 12 0
BBX 10 16 0 1
BITMAP
3E00
0000
0000
6300
0000
C1C0
0000
C180
C180
0000
C1C0
0000
7300
0000
0000
3E00
ENDCHAR
STARTCHAR one
ENCODING 49
SWIDTH 500 0
DWIDTH 12 0
BBX 7 16 1 1
BITMAP
18
00
00
78
00
F8
00
18
18
00
18
00
18
00
00
FE
ENDCHAR
STARTCHAR two
ENCODING 50
SWIDTH 500 0
DWIDTH 12 0
BBX 10 16 0 1
BITMAP
7F00
0000
0000
C180
0000
01C0
0000
0F00
0F00
0000
7800
0000
C000
0000
0000
FF80
ENDCHAR
STARTCHAR three
ENCODING 51
SWIDTH 500 0
DWIDTH 12 0
BBX 10 16 0 1
BITMAP
FF80
0000
0000
0300
0000
0600
0000
0F00
0F00
0000
01C0
0000
C1C0
0000
0000
7F00
ENDCHAR
STARTCHAR four
ENCODING 52
SWIDTH 500 0
DWIDTH 12 0
BBX 10 16 0 1
BITMAP
0600
0000
0000
0E00
0000
3E00
0000
6600
6600
0000
FFC0
0000
0600
0000
0000
0600
ENDCHAR
STARTCHAR five
ENCODING 53
SWIDTH 500 0
DWIDTH 12 0
BBX 10 16 0 1
BITMAP
FF80
0000
0000
C000
0000
FF00
0000
E180
E180
0000
01C0
0000
C1C0
0000
0000
7F00
ENDCHAR
STARTCHAR six
ENCODING 54
SWIDTH 500 0
DWIDTH 12 0
BBX 10 16 0 1
BITMAP
3F00
0000
0000
6000
0000
C000
0000
3D00
3E00
0000
F1C0
0000
C1C0
0000
0000
7F00
ENDCHAR
STARTCHAR seven
ENCODING 55
SWIDTH 500 0
DWIDTH 12 0
BBX 9 16 0 1
BITMAP
FF80
0000
0000
0180
0000
0300
0000
0600
0600
0000
0C00
0000
3800
0000
0000
1800
ENDCHAR
STARTCHAR eight
ENCODING 56
SWIDTH 500 0
DWIDTH 12 0
BBX 10 16 0 1
BITMAP
7F00
0000
0000
C180
0000
C1C0
0000
3C00
1F00
0000
C1C0
0000
C1C0
0000
0000
7F00
ENDCHAR
STARTCHAR nine
ENCODING 57
SWIDTH 500 0
DWIDTH 12 0
BBX 10 16 0 1
BITMAP
7F00
0000
0000
C180
0000
C3C0
0000
1E00
0F00
0000
01C0
0000
0300
0000
0000
7E00
ENDCHAR
STARTCHAR colon
ENCODING 58
SWIDTH 500 0
DWIDTH 12 0
BBX 4 13 2 1
BITMAP
F0
00
F0
00
00
00
00
00
00
F0
00
00
F0
ENDCHAR
STARTCHAR semicolon
ENCODING 59
SWIDTH 500 0
DWIDTH 12 0
BBX 5 15 1 -1
BITMAP
78
00
78
00
00
00
00
00
00
78
00
00
30
00
E0
ENDCHAR
STARTCHAR less
ENCODING 60
SWIDTH 500 0
DWIDTH 12 0
BBX 10 16 0 1
BITMAP
01C0
0000
0000
0600
0000
3800
0000
C000
C000
0000
3800
0000
0600
0000
0000
0180
ENDCHAR
STARTCHAR equal
ENCODING 61
SWIDTH 500 0
DWIDTH 12 0
BBX 10 6 0 6
BITMAP
FFC0
0000
0000
0000
0000
FFC0
ENDCHAR
STARTCHAR greater
ENCODING 62
SWIDTH 500 0
DWIDTH 12 0
BBX 9 16 0 1
BITMAP
C000
0000
0000
1800
0000
0600
0000
0180
0180
0000
0600
0000
3800
0000
0000
C000
ENDCHAR
STARTCHAR question
ENCODING 63
SWIDTH 500 0
DWIDTH 12 0
BBX 9 16 0 1
BITMAP
7F00
0000
0000
C180
0000
0700
0000
0C00
0C00
0000
0C00
0000
0000
0000
0000
0C00
ENDCHAR
STARTCHAR at
ENCODING 64
SWIDTH 500 0
DWIDTH 12 0
BBX 10 16 0 1
BITMAP
7F00
0000
0000
C180
0000
CFC0
0000
F380
F380
0000
CFC0
0000
C000
0000
0000
7F00
ENDCHAR
STARTCHAR A
ENCODING 65
SWIDTH 500 0
DWIDTH 12 0
BBX 10 16 0 1
BITMAP
0C00
0000
0000
3E00
0000
7300
0000
C180
C180
0000
FFC0
0000
C1C0
0000
0000
C180
ENDCHAR
STARTCHAR B
ENCODING 66
SWIDTH 500 0
DWIDTH 12 0
BBX 10 16 0 1
BITMAP
FF00
0000
0000
6180
0000
71C0
0000
3C00
1F00
0000
71C0
0000
71C0
0000
0000
FF00
ENDCHAR
STARTCHAR C
ENCODING 67
SWIDTH 500 0
DWIDTH 12 0
BBX 10 16 0 1
BITMAP
3F00
0000
0000
6180
0000
C000
0000
C000
C000
0000
C000
0000
71C0
0000
0000
3F00
ENDCHAR
STARTCHAR D
ENCODING 68
SWIDTH 500 0
DWIDTH 12 0
BBX 10 16 0 1
BITMAP
FE00
0000
0000
6300
0000
71C0
0000
6180
6180
0000
71C0
0000
7300
0000
0000
FE00
ENDCHAR
STARTCHAR E
ENCODING 69
SWIDTH 500 0
DWIDTH 12 0
BBX 9 16 0 1
BITMAP
FF80
0000
0000
C000
0000
C000
0000
7A00
3C00
0000
C000
0000
C000
0000
0000
FF80
ENDCHAR
STARTCHAR F
ENCODING 70
SWIDTH 500 0
DWIDTH 12 0
BBX 9 16 0 1
BITMAP
FF80
0000
0000
C000
0000
C000
0000
7A00
3C00
0000
C000
0000
C000
0000
0000
C000
ENDCHAR
STARTCHAR G
ENCODING 71
SWIDTH 500 0
DWIDTH 12 0
BBX 10 16 0 1
BITMAP
3F00
0000
0000
6180
0000
C000
0000
C000
C000
0000
C7C0
0000
71C0
0000
0000
3F00
ENDCHAR
STARTCHAR H
ENCODING 72
SWIDTH 500 0
DWIDTH 12 0
BBX 10 16 0 1
BITMAP
C1C0
0000
0000
C180
0000
C1C0
0000
3E00
1F00
0000
C1C0
0000
C1C0
0000
0000
C180
ENDCHAR
STARTCHAR I
ENCODING 73
SWIDTH 500 0
DWIDTH 12 0
BBX 7 16 1 1
BITMAP
FE
00
00
18
00
18
00
18
18
00
18
00
18
00
00
FE
ENDCHAR
STARTCHAR J
ENCODING 74
SWIDTH 500 0
DWIDTH 12 0
BBX 9 16 0 1
BITMAP
0780
0000
0000
0300
0000
0300
0000
0300
0300
0000
0300
0000
C300
0000
0000
7E00
ENDCHAR
STARTCHAR K
ENCODING 75
SWIDTH 500 0
DWIDTH 12 0
BBX 10 16 0 1
BITMAP
C1C0
0000
0000
C700
0000
FC00
0000
E000
E000
0000
FC00
0000
C700
0000
0000
C180
ENDCHAR
STARTCHAR L
ENCODING 76
SWIDTH 500 0
DWIDTH 12 0
BBX 9 16 0 1
BITMAP
C000
0000
0000
C000
0000
C000
0000
C000
C000
0000
C000
0000
C000
0000
0000
FF80
ENDCHAR
STARTCHAR M
ENCODING 77
SWIDTH 500 0
DWIDTH 12 0
BBX 10 16 0 1
BITMAP
C1C0
0000
0000
F3C0
0000
FFC0
0000
CD80
CD80
0000
C1C0
0000
C1C0
0000
0000
C180
ENDCHAR
STARTCHAR N
ENCODING 78
SWIDTH 500 0
DWIDTH 12 0
BBX 10 16 0 1
BITMAP
C1C0
0000
0000
F180
0000
F9C0
0000
CD80
CD80
0000
C7C0
0000
C3C0
0000
0000
C180
ENDCHAR
STARTCHAR O
ENCODING 79
SWIDTH 500 0
DWIDTH 12 0
BBX 10 16 0 1
BITMAP
7F00
0000
0000
C180
0000
C1C0
0000
C180
C180
0000
C1C0
0000
C1C0
0000
0000
7F00
ENDCHAR
STARTCHAR P
ENCODING 80
SWIDTH 500 0
DWIDTH 12 0
BBX 10 16 0 1
BITMAP
FF00
0000
0000
C180
0000
C1C0
0000
3D00
3E00
0000
C000
0000
C000
0000
0000
C000
ENDCHAR
STARTCHAR Q
ENCODING 81
SWIDTH 500 0
DWIDTH 12 0
BBX 10 16 0 1
BITMAP
7F00
0000
0000
C180
0000
C1C0
0000
C180
C180
0000
C7C0
0000
C300
0000
0000
7F80
ENDCHAR
STARTCHAR R
ENCODING 82
SWIDTH 500 0
DWIDTH 12 0
BBX 10 16 0 1
BITMAP
FF00
0000
0000
C180
0000
C1C0
0000
3D00
3E00
0000
C600
0000
C300
0000
0000
C180
ENDCHAR
STARTCHAR S
ENCODING 83
SWIDTH 500 0
DWIDTH 12 0
BBX 10 16 0 1
BITMAP
7F00
0000
0000
C180
0000
C000
0000
3C00
1F00
0000
01C0
0000
C1C0
0000
0000
7F00
ENDCHAR
STARTCHAR T
ENCODING 84
SWIDTH 500 0
DWIDTH 12 0
BBX 9 16 0 1
BITMAP
FF80
0000
0000
0C00
0000
0C00
0000
0C00
0C00
0000
0C00
0000
0C00
0000
0000
0C00
ENDCHAR
STARTCHAR U
ENCODING 85
SWIDTH 500 0
DWIDTH 12 0
BBX 10 16 0 1
BITMAP
C1C0
0000
0000
C180
0000
C1C0
0000
C180
C180
0000
C1C0
0000
C1C0
0000
0000
7F00
ENDCHAR
STARTCHAR V
ENCODING 86
SWIDTH 500 0
DWIDTH 12 0
BBX 10 16 0 1
BITMAP
C1C0
0000
0000
C180
0000
7300
0000
6300
6300
0000
3E00
0000
3E00
0000
0000
0C00
ENDCHAR
STARTCHAR W
ENCODING 87
SWIDTH 500 0
DWIDTH 12 0
BBX 10 16 0 1
BITMAP
C1C0
0000
0000
C180
0000
C1C0
0000
CD80
CD80
0000
CDC0
0000
FF80
0000
0000
6300
ENDCHAR
STARTCHAR X
ENCODING 88
SWIDTH 500 0
DWIDTH 12 0
BBX 10 16 0 1
BITMAP
C1C0
0000
0000
6300
0000
3E00
0000
0C00
0C00
0000
3E00
0000
7300
0000
0000
C180
ENDCHAR
STARTCHAR Y
ENCODING 89
SWIDTH 500 0
DWIDTH 12 0
BBX 10 16 0 1
BITMAP
C1C0
0000
0000
6300
0000
3E00
0000
0C00
0C00
0000
0C00
0000
0C00
0000
0000
0C00
ENDCHAR
STARTCHAR Z
ENCODING 90
SWIDTH 500 0
DWIDTH 12 0
BBX 9 16 0 1
BITMAP
FF80
0000
0000
0300
0000
0600
0000
0C00
0C00
0000
3800
0000
7000
0000
0000
FF80
ENDCHAR
STARTCHAR bracketleft
ENCODING 91
SWIDTH 500 0
DWIDTH 12 0
BBX 6 16 2 1
BITMAP
FC
00
00
60
00
E0
00
60
60
00
E0
00
E0
00
00
FC
ENDCHAR
STARTCHAR backslash
ENCODING 92
SWIDTH 500 0
DWIDTH 12 0
BBX 9 16 0 1
BITMAP
C000
0000
0000
6000
0000
3800
0000
0C00
0C00
0000
0600
0000
0300
0000
0000
0180
ENDCHAR
STARTCHAR bracketright
ENCODING 93
SWIDTH 500 0
DWIDTH 12 0
BBX 6 16 1 1
BITMAP
FC
00
00
0C
00
0C
00
0C
0C
00
0C
00
0C
00
00
FC
ENDCHAR
STARTCHAR asciicircum
ENCODING 94
SWIDTH 500 0
DWIDTH 12 0
BBX 9 9 0 8
BITMAP
0C00
0000
0000
3E00
0000
7300
0000
C180
C180
ENDCHAR
STARTCHAR underscore
ENCODING 95
SWIDTH 500 0
DWIDTH 12 0
BBX 9 1 0 1
BITMAP
FF80
ENDCHAR
STARTCHAR grave
ENCODING 96
SWIDTH 500 0
DWIDTH 12 0
BBX 5 6 2 11
BITMAP
F0
00
00
30
00
18
ENDCHAR
STARTCHAR a
ENCODING 97
SWIDTH 500 0
DWIDTH 12 0
BBX 10 11 0 1
BITMAP
7F00
0000
0180
0180
0000
7FC0
0000
C3C0
0000
0000
7F80
ENDCHAR
STARTCHAR b
ENCODING 98
SWIDTH 500 0
DWIDTH 12 0
BBX 10 16 0 1
BITMAP
C000
0000
0000
C000
0000
FF00
0000
E180
E180
0000
C1C0
0000
F1C0
0000
0000
FF00
ENDCHAR
STARTCHAR c
ENCODING 99
SWIDTH 500 0
DWIDTH 12 0
BBX 9 11 0 1
BITMAP
7F00
0000
C180
C180
0000
C000
0000
C000
0000
0000
7F80
ENDCHAR
STARTCHAR d
ENCODING 100
SWIDTH 500 0
DWIDTH 12 0
BBX 10 16 0 1
BITMAP
01C0
0000
0000
0180
0000
7FC0
0000
C380
C380
0000
C1C0
0000
C3C0
0000
0000
7F80
ENDCHAR
STARTCHAR e
ENCODING 101
SWIDTH 500 0
DWIDTH 12 0
BBX 10 11 0 1
BITMAP
7F00
0000
C180
C180
0000
FFC0
0000
C000
0000
0000
7F00
ENDCHAR
STARTCHAR f
ENCODING 102
SWIDTH 500 0
DWIDTH 12 0
BBX 8 16 1 1
BITMAP
1E
00
00
33
00
70
00
F4
78
00
70
00
70
00
00
30
ENDCHAR
STARTCHAR g
ENCODING 103
SWIDTH 500 0
DWIDTH 12 0
BBX 10 16 0 -4
BITMAP
7FC0
0000
C300
C300
0000
7E00
0000
C000
0000
0000
7F00
0000
C1C0
0000
3C00
1F00
ENDCHAR
STARTCHAR h
ENCODING 104
SWIDTH 500 0
DWIDTH 12 0
BBX 10 16 0 1
BITMAP
C000
0000
0000
C000
0000
FF00
0000
E180
E180
0000
C1C0
0000
C1C0
0000
0000
C180
ENDCHAR
STARTCHAR i
ENCODING 105
SWIDTH 500 0
DWIDTH 12 0
BBX 7 16 1 1
BITMAP
18
00
00
00
00
78
00
18
18
00
18
00
18
00
00
FE
ENDCHAR
STARTCHAR j
ENCODING 106
SWIDTH 500 0
DWIDTH 12 0
BBX 8 21 0 -4
BITMAP
03
00
00
00
00
03
00
03
03
00
03
00
03
00
00
C3
00
C3
00
3E
3E
ENDCHAR
STARTCHAR k
ENCODING 107
SWIDTH 500 0
DWIDTH 12 0
BBX 9 16 0 1
BITMAP
C000
0000
0000
C000
0000
C600
0000
CC00
CC00
0000
F800
0000
C600
0000
0000
C180
ENDCHAR
STARTCHAR l
ENCODING 108
SWIDTH 500 0
DWIDTH 12 0
BBX 5 16 2 1
BITMAP
F0
00
00
30
00
30
00
30
30
00
30
00
30
00
00
F8
ENDCHAR
STARTCHAR m
ENCODING 109
SWIDTH 500 0
DWIDTH 12 0
BBX 10 11 0 1
BITMAP
F300
0000
3E00
1F00
0000
CDC0
0000
CDC0
0000
0000
C180
ENDCHAR
STARTCHAR n
ENCODING 110
SWIDTH 500 0
DWIDTH 12 0
BBX 10 11 0 1
BITMAP
FF00
0000
E180
E180
0000
C1C0
0000
C1C0
0000
0000
C180
ENDCHAR
STARTCHAR o
ENCODING 111
SWIDTH 500 0
DWIDTH 12 0
BBX 10 11 0 1
BITMAP
7F00
0000
C180
C180
0000
C1C0
0000
C1C0
0000
0000
7F00
ENDCHAR
STARTCHAR p
ENCODING 112
SWIDTH 500 0
DWIDTH 12 0
BBX 10 16 0 -4
BITMAP
FF00
0000
E180
E180
0000
F1C0
0000
FF00
0000
0000
C000
0000
C000
0000
C000
C000
ENDCHAR
STARTCHAR q
ENCODING 113
SWIDTH 500 0
DWIDTH 12 0
BBX 10 16 0 -4
BITMAP
7FC0
0000
C380
C380
0000
C3C0
0000
7F80
0000
0000
0180
0000
01C0
0000
0180
0180
ENDCHAR
STARTCHAR r
ENCODING 114
SWIDTH 500 0
DWIDTH 12 0
BBX 9 11 0 1
BITMAP
CF00
0000
3180
3180
0000
7000
0000
7000
0000
0000
6000
ENDCHAR
STARTCHAR s
ENCODING 115
SWIDTH 500 0
DWIDTH 12 0
BBX 10 11 0 1
BITMAP
7F00
0000
C000
C000
0000
7F00
0000
01C0
0000
0000
FF00
ENDCHAR
STARTCHAR t
ENCODING 116
SWIDTH 500 0
DWIDTH 12 0
BBX 8 16 0 1
BITMAP
38
00
00
18
00
FE
00
18
18
00
38
00
3B
00
00
0E
ENDCHAR
STARTCHAR u
ENCODING 117
SWIDTH 500 0
DWIDTH 12 0
BBX 9 11 0 1
BITMAP
C300
0000
C300
C300
0000
C300
0000
C300
0000
0000
7F80
ENDCHAR
STARTCHAR v
ENCODING 118
SWIDTH 500 0
DWIDTH 12 0
BBX 10 11 0 1
BITMAP
C1C0
0000
C180
C180
0000
7300
0000
3E00
0000
0000
0C00
ENDCHAR
STARTCHAR w
ENCODING 119
SWIDTH 500 0
DWIDTH 12 0
BBX 10 11 0 1
BITMAP
C1C0
0000
C180
C180
0000
CDC0
0000
FF80
0000
0000
6300
ENDCHAR
STARTCHAR x
ENCODING 120
SWIDTH 500 0
DWIDTH 12 0
BBX 8 11 0 1
BITMAP
C3
00
66
66
00
3C
00
76
00
00
C3
ENDCHAR
STARTCHAR y
ENCODING 121
SWIDTH 500 0
DWIDTH 12 0
BBX 8 16 0 -4
BITMAP
C3
00
C3
C3
00
C7
00
7F
00
00
03
00
C3
00
3E
3E
ENDCHAR
STARTCHAR z
ENCODING 122
SWIDTH 500 0
DWIDTH 12 0
BBX 10 11 0 1
BITMAP
FFC0
0000
0300
0300
0000
0E00
0000
3800
0000
0000
FF80
ENDCHAR
STARTCHAR braceleft
ENCODING 123
SWIDTH 500 0
DWIDTH 12 0
BBX 7 16 3 1
BITMAP
3C
00
00
60
00
30
00
E0
E0
00
30
00
60
00
00
3E
ENDCHAR
STARTCHAR bar
ENCODING 124
SWIDTH 500 0
DWIDTH 12 0
BBX 2 16 4 1
BITMAP
C0
00
00
C0
00
C0
00
C0
C0
00
C0
00
C0
00
00
C0
ENDCHAR
STARTCHAR braceright
ENCODING 125
SWIDTH 500 0
DWIDTH 12 0
BBX 7 16 0 1
BITMAP
F8
00
00
0C
00
38
00
0E
0E
00
38
00
0C
00
00
F8
ENDCHAR
STARTCHAR asciitilde
ENCODING 126
SWIDTH 500 0
DWIDTH 12 0
BBX 10 6 0 11
BITMAP
79C0
0000
0000
CD80
0000
C700
ENDCHAR
STARTCHAR uni007F
ENCODING 127
SWIDTH 500 0
DWIDTH 12 0
BBX 7 21 0 -4
BITMAP
F8
00
00
CC
00
CC
00
CC
CC
00
FE
00
38
00
00
18
00
38
00
18
18
ENDCHAR
STARTCHAR uni0080
ENCODING 128
SWIDTH 500 0
DWIDTH 12 0
BBX 10 21 0 -4
BITMAP
7800
0000
0000
CC00
0000
7800
0000
CC00
CC00
0000
7F00
0000
0DC0
0000
0000
0D80
0000
0DC0
0000
0700
0700
ENDCHAR
STARTCHAR uni0081
ENCODING 129
SWIDTH 500 0
DWIDTH 12 0
BBX 9 21 0 -4
BITMAP
7800
0000
0000
CC00
0000
7800
0000
CC00
CC00
0000
7B00
0000
0700
0000
0000
0300
0000
0300
0000
0780
0780
ENDCHAR
STARTCHAR uni0082
ENCODING 130
SWIDTH 500 0
DWIDTH 12 0
BBX 10 21 0 -4
BITMAP
7800
0000
0000
CC00
0000
7800
0000
CC00
CC00
0000
7F00
0000
0DC0
0000
0000
0300
0000
0600
0000
0F80
0F80
ENDCHAR
STARTCHAR uni0083
ENCODING 131
SWIDTH 500 0
DWIDTH 12 0
BBX 10 21 0 -4
BITMAP
7800
0000
0000
CC00
0000
7800
0000
CC00
CC00
0000
7FC0
0000
01C0
0000
0000
0700
0000
01C0
0000
0F00
0F00
ENDCHAR
STARTCHAR uni0084
ENCODING 132
SWIDTH 500 0
DWIDTH 12 0
BBX 10 21 0 -4
BITMAP
7800
0000
0000
CC00
0000
7800
0000
CC00
CC00
0000
7B00
0000
0700
0000
0000
0F00
0000
3FC0
0000
0300
0300
ENDCHAR
STARTCHAR uni0085
ENCODING 133
SWIDTH 500 0
DWIDTH 12 0
BBX 10 21 0 -4
BITMAP
7800
0000
0000
CC00
0000
7800
0000
CC00
CC00
0000
7FC0
0000
0C00
0000
0000
0F00
0000
01C0
0000
0F00
0F00
ENDCHAR
STARTCHAR uni0086
ENCODING 134
SWIDTH 500 0
DWIDTH 12 0
BBX 10 21 0 -4
BITMAP
7800
0000
0000
CC00
0000
7800
0000
CC00
CC00
0000
7BC0
0000
0600
0000
0000
0F00
0000
0DC0
0000
0700
0700
ENDCHAR
STARTCHAR uni0087
ENCODING 135
SWIDTH 500 0
DWIDTH 12 0
BBX 10 21 0 -4
BITMAP
7800
0000
0000
CC00
0000
7800
0000
CC00
CC00
0000
7FC0
0000
01C0
0000
0000
0300
0000
0600
0000
0600
0600
ENDCHAR
STARTCHAR uni0088
ENCODING 136
SWIDTH 500 0
DWIDTH 12 0
BBX 10 21 0 -4
BITMAP
7800
0000
0000
CC00
0000
7800
0000
CC00
CC00
0000
7F00
0000
0DC0
0000
0000
0700
0000
0DC0
0000
0700
0700
ENDCHAR
STARTCHAR uni0089
ENCODING 137
SWIDTH 500 0
DWIDTH 12 0
BBX 10 21 0 -4
BITMAP
7800
0000
0000
CC00
0000
7800
0000
CC00
CC00
0000
7F00
0000
0DC0
0000
0000
07C0
0000
0300
0000
0E00
0E00
ENDCHAR
STARTCHAR uni008A
ENCODING 138
SWIDTH 500 0
DWIDTH 12 0
BBX 10 21 0 -4
BITMAP
7800
0000
0000
CC00
0000
7800
0000
CC00
CC00
0000
7F00
0000
0DC0
0000
0000
0FC0
0000
0DC0
0000
0D80
0D80
ENDCHAR
STARTCHAR uni008B
ENCODING 139
SWIDTH 500 0
DWIDTH 12 0
BBX 10 21 0 -4
BITMAP
7800
0000
0000
CC00
0000
7800
0000
CC00
CC00
0000
7F00
0000
0DC0
0000
0000
0F00
0000
0DC0
0000
0F00
0F00
ENDCHAR
STARTCHAR uni008C
ENCODING 140
SWIDTH 500 0
DWIDTH 12 0
BBX 10 21 0 -4
BITMAP
7800
0000
0000
CC00
0000
7800
0000
CC00
CC00
0000
7FC0
0000
0C00
0000
0000
0C00
0000
0C00
0000
0780
0780
ENDCHAR
STARTCHAR uni008D
ENCODING 141
SWIDTH 500 0
DWIDTH 12 0
BBX 10 21 0 -4
BITMAP
7800
0000
0000
CC00
0000
7800
0000
CC00
CC00
0000
7F00
0000
0DC0
0000
0000
0D80
0000
0DC0
0000
0F00
0F00
ENDCHAR
STARTCHAR uni008E
ENCODING 142
SWIDTH 500 0
DWIDTH 12 0
BBX 10 21 0 -4
BITMAP
7800
0000
0000
CC00
0000
7800
0000
CC00
CC00
0000
7FC0
0000
0C00
0000
0000
0F00
0000
0C00
0000
0F80
0F80
ENDCHAR
STARTCHAR uni008F
ENCODING 143
SWIDTH 500 0
DWIDTH 12 0
BBX 10 21 0 -4
BITMAP
7800
0000
0000
CC00
0000
7800
0000
CC00
CC00
0000
7FC0
0000
0C00
0000
0000
0F00
0000
0C00
0000
0C00
0C00
ENDCHAR
STARTCHAR uni0090
ENCODING 144
SWIDTH 500 0
DWIDTH 12 0
BBX 10 21 0 -4
BITMAP
7800
0000
0000
CC00
0000
7C00
0000
1800
1800
0000
F700
0000
0DC0
0000
0000
0D80
0000
0DC0
0000
0700
0700
ENDCHAR
STARTCHAR uni0091
ENCODING 145
SWIDTH 500 0
DWIDTH 12 0
BBX 9 21 0 -4
BITMAP
7800
0000
0000
CC00
0000
7C00
0000
1800
1800
0000
F300
0000
0700
0000
0000
0300
0000
0300
0000
0780
0780
ENDCHAR
STARTCHAR uni0092
ENCODING 146
SWIDTH 500 0
DWIDTH 12 0
BBX 10 21 0 -4
BITMAP
7800
0000
0000
CC00
0000
7C00
0000
1800
1800
0000
F700
0000
0DC0
0000
0000
0300
0000
0600
0000
0F80
0F80
ENDCHAR
STARTCHAR uni0093
ENCODING 147
SWIDTH 500 0
DWIDTH 12 0
BBX 10 21 0 -4
BITMAP
7800
0000
0000
CC00
0000
7C00
0000
1800
1800
0000
FFC0
0000
01C0
0000
0000
0700
0000
01C0
0000
0F00
0F00
ENDCHAR
STARTCHAR uni0094
ENCODING 148
SWIDTH 500 0
DWIDTH 12 0
BBX 10 21 0 -4
BITMAP
7800
0000
0000
CC00
0000
7C00
0000
1800
1800
0000
F300
0000
0700
0000
0000
0F00
0000
3FC0
0000
0300
0300
ENDCHAR
STARTCHAR uni0095
ENCODING 149
SWIDTH 500 0
DWIDTH 12 0
BBX 10 21 0 -4
BITMAP
7800
0000
0000
CC00
0000
7C00
0000
1800
1800
0000
FFC0
0000
0C00
0000
0000
0F00
0000
01C0
0000
0F00
0F00
ENDCHAR
STARTCHAR uni0096
ENCODING 150
SWIDTH 500 0
DWIDTH 12 0
BBX 10 21 0 -4
BITMAP
7800
0000
0000
CC00
0000
7C00
0000
1800
1800
0000
F3C0
0000
0600
0000
0000
0F00
0000
0DC0
0000
0700
0700
ENDCHAR
STARTCHAR uni0097
ENCODING 151
SWIDTH 500 0
DWIDTH 12 0
BBX 10 21 0 -4
BITMAP
7800
0000
0000
CC00
0000
7C00
0000
1800
1800
0000
FFC0
0000
01C0
0000
0000
0300
0000
0600
0000
0600
0600
ENDCHAR
STARTCHAR uni0098
ENCODING 152
SWIDTH 500 0
DWIDTH 12 0
BBX 10 21 0 -4
BITMAP
7800
0000
0000
CC00
0000
7C00
0000
1800
1800
0000
F700
0000
0DC0
0000
0000
0700
0000
0DC0
0000
0700
0700
ENDCHAR
STARTCHAR uni0099
ENCODING 153
SWIDTH 500 0
DWIDTH 12 0
BBX 10 21 0 -4
BITMAP
7800
0000
0000
CC00
0000
7C00
0000
1800
1800
0000
F700
0000
0DC0
0000
0000
07C0
0000
0300
0000
0E00
0E00
ENDCHAR
STARTCHAR uni009A
ENCODING 154
SWIDTH 500 0
DWIDTH 12 0
BBX 10 21 0 -4
BITMAP
7800
0000
0000
CC00
0000
7C00
0000
1800
1800
0000
F700
0000
0DC0
0000
0000
0FC0
0000
0DC0
0000
0D80
0D80
ENDCHAR
STARTCHAR uni009B
ENCODING 155
SWIDTH 500 0
DWIDTH 12 0
BBX 10 21 0 -4
BITMAP
7800
0000
0000
CC00
0000
7C00
0000
1800
1800
0000
FF00
0000
0DC0
0000
0000
0F00
0000
0DC0
0000
0F00
0F00
ENDCHAR
STARTCHAR uni009C
ENCODING 156
SWIDTH 500 0
DWIDTH 12 0
BBX 10 21 0 -4
BITMAP
7800
0000
0000
CC00
0000
7C00
0000
1800
1800
0000
F7C0
0000
0C00
0000
0000
0C00
0000
0C00
0000
0780
0780
ENDCHAR
STARTCHAR uni009D
ENCODING 157
SWIDTH 500 0
DWIDTH 12 0
BBX 10 21 0 -4
BITMAP
7800
0000
0000
CC00
0000
7C00
0000
1800
1800
0000
FF00
0000
0DC0
0000
0000
0D80
0000
0DC0
0000
0F00
0F00
ENDCHAR
STARTCHAR uni009E
ENCODING 158
SWIDTH 500 0
DWIDTH 12 0
BBX 10 21 0 -4
BITMAP
7800
0000
0000
CC00
0000
7C00
0000
1800
1800
0000
FFC0
0000
0C00
0000
0000
0F00
0000
0C00
0000
0F80
0F80
ENDCHAR
STARTCHAR uni009F
ENCODING 159
SWIDTH 500 0
DWIDTH 12 0
BBX 10 21 0 -4
BITMAP
7800
0000
0000
CC00
0000
7C00
0000
1800
1800
0000
FFC0
0000
0C00
0000
0000
0F00
0000
0C00
0000
0C00
0C00
ENDCHAR
STARTCHAR uni00A0
ENCODING 160
SWIDTH 500 0
DWIDTH 12 0
BBX 10 21 0 -4
BITMAP
7800
0000
0000
CC00
0000
FC00
0000
CC00
CC00
0000
CF00
0000
0DC0
0000
0000
0D80
0000
0DC0
0000
0700
0700
ENDCHAR
STARTCHAR exclamdown
ENCODING 161
SWIDTH 500 0
DWIDTH 12 0
BBX 2 16 4 1
BITMAP
C0
00
00
00
00
C0
00
C0
C0
00
C0
00
C0
00
00
C0
ENDCHAR
STARTCHAR cent
ENCODING 162
SWIDTH 500 0
DWIDTH 12 0
BBX 10 15 0 -1
BITMAP
0C00
0000
7F00
0000
CD80
CD80
0000
CC00
0000
CDC0
0000
0000
7F00
0000
0C00
ENDCHAR
STARTCHAR sterling
ENCODING 163
SWIDTH 500 0
DWIDTH 12 0
BBX 10 18 0 -1
BITMAP
0F00
0000
0000
1980
0000
3800
0000
7A00
3C00
0000
3800
0000
7E00
0000
0000
FBC0
0000
7000
ENDCHAR
STARTCHAR currency
ENCODING 164
SWIDTH 500 0
DWIDTH 12 0
BBX 10 21 0 -4
BITMAP
7800
0000
0000
CC00
0000
FC00
0000
CC00
CC00
0000
CF00
0000
0700
0000
0000
0F00
0000
3FC0
0000
0300
0300
ENDCHAR
STARTCHAR yen
ENCODING 165
SWIDTH 500 0
DWIDTH 12 0
BBX 10 16 0 1
BITMAP
C1C0
0000
0000
6300
0000
3E00
0000
0C00
0C00
0000
FFC0
0000
0C00
0000
0000
0C00
ENDCHAR
STARTCHAR brokenbar
ENCODING 166
SWIDTH 500 0
DWIDTH 12 0
BBX 10 21 0 -4
BITMAP
7800
0000
0000
CC00
0000
FC00
0000
CC00
CC00
0000
CFC0
0000
0600
0000
0000
0F00
0000
0DC0
0000
0700
0700
ENDCHAR
STARTCHAR section
ENCODING 167
SWIDTH 500 0
DWIDTH 12 0
BBX 7 16 1 1
BITMAP
7E
00
00
C0
00
7C
00
46
C6
00
7C
00
06
00
00
FC
ENDCHAR
STARTCHAR dieresis
ENCODING 168
SWIDTH 500 0
DWIDTH 12 0
BBX 9 10 0 4
BITMAP
C180
0000
7F00
0000
6300
6300
0000
7F00
0000
C180
ENDCHAR
STARTCHAR copyright
ENCODING 169
SWIDTH 500 0
DWIDTH 12 0
BBX 10 18 0 -1
BITMAP
3E00
0000
0000
6300
0000
CFC0
0000
F180
F180
0000
F9C0
0000
CFC0
0000
0000
6300
0000
3E00
ENDCHAR
STARTCHAR ordfeminine
ENCODING 170
SWIDTH 500 0
DWIDTH 12 0
BBX 10 16 0 1
BITMAP
7F00
0000
0000
0180
0000
7FC0
0000
C380
C380
0000
7FC0
0000
0000
0000
0000
FF80
ENDCHAR
STARTCHAR guillemotleft
ENCODING 171
SWIDTH 500 0
DWIDTH 12 0
BBX 10 16 0 1
BITMAP
0DC0
0000
0000
1B00
0000
7600
0000
CC00
CC00
0000
7600
0000
3B00
0000
0000
0D80
ENDCHAR
STARTCHAR logicalnot
ENCODING 172
SWIDTH 500 0
DWIDTH 12 0
BBX 10 21 0 -4
BITMAP
7800
0000
0000
CC00
0000
FC00
0000
CC00
CC00
0000
CFC0
0000
0C00
0000
0000
0C00
0000
0C00
0000
0780
0780
ENDCHAR
STARTCHAR uni00AD
ENCODING 173
SWIDTH 500 0
DWIDTH 12 0
BBX 10 21 0 -4
BITMAP
7800
0000
0000
CC00
0000
FC00
0000
CC00
CC00
0000
CF00
0000
0DC0
0000
0000
0D80
0000
0DC0
0000
0F00
0F00
ENDCHAR
STARTCHAR registered
ENCODING 174
SWIDTH 500 0
DWIDTH 12 0
BBX 10 21 0 -4
BITMAP
7800
0000
0000
CC00
0000
FC00
0000
CC00
CC00
0000
CFC0
0000
0C00
0000
0000
0F00
0000
0C00
0000
0F80
0F80
ENDCHAR
STARTCHAR macron
ENCODING 175
SWIDTH 500 0
DWIDTH 12 0
BBX 10 21 0 -4
BITMAP
7800
0000
0000
CC00
0000
FC00
0000
CC00
CC00
0000
CFC0
0000
0C00
0000
0000
0F00
0000
0C00
0000
0C00
0C00
ENDCHAR
STARTCHAR degree
ENCODING 176
SWIDTH 500 0
DWIDTH 12 0
BBX 7 6 1 11
BITMAP
7C
00
00
C6
00
7C
ENDCHAR
STARTCHAR plusminus
ENCODING 177
SWIDTH 500 0
DWIDTH 12 0
BBX 9 13 0 1
BITMAP
0C00
0000
0C00
0000
3E00
1F00
0000
0C00
0000
0C00
0000
0000
FF80
ENDCHAR
STARTCHAR uni00B2
ENCODING 178
SWIDTH 500 0
DWIDTH 12 0
BBX 7 11 1 8
BITMAP
7C
00
E6
00
00
1C
00
70
00
78
3E
ENDCHAR
STARTCHAR uni00B3
ENCODING 179
SWIDTH 500 0
DWIDTH 12 0
BBX 7 11 1 8
BITMAP
FE
00
06
00
00
1C
00
06
00
7C
7C
ENDCHAR
STARTCHAR acute
ENCODING 180
SWIDTH 500 0
DWIDTH 12 0
BBX 10 21 0 -4
BITMAP
F800
0000
0000
CC00
0000
F800
0000
CC00
CC00
0000
FB00
0000
0700
0000
0000
0F00
0000
3FC0
0000
0300
0300
ENDCHAR
STARTCHAR uni00B5
ENCODING 181
SWIDTH 500 0
DWIDTH 12 0
BBX 10 16 0 -4
BITMAP
71C0
0000
6180
6180
0000
71C0
0000
7BC0
0000
0000
7F80
0000
7000
0000
C000
C000
ENDCHAR
STARTCHAR paragraph
ENCODING 182
SWIDTH 500 0
DWIDTH 12 0
BBX 10 16 0 1
BITMAP
7F80
0000
0000
F7C0
0000
F7C0
0000
1E00
0F00
0000
07C0
0000
0780
0000
0000
07C0
ENDCHAR
STARTCHAR periodcentered
ENCODING 183
SWIDTH 500 0
DWIDTH 12 0
BBX 4 4 2 8
BITMAP
F0
00
70
70
ENDCHAR
STARTCHAR cedilla
ENCODING 184
SWIDTH 500 0
DWIDTH 12 0
BBX 10 21 0 -4
BITMAP
F800
0000
0000
CC00
0000
F800
0000
CC00
CC00
0000
FF00
0000
0DC0
0000
0000
0700
0000
0DC0
0000
0700
0700
ENDCHAR
STARTCHAR uni00B9
ENCODING 185
SWIDTH 500 0
DWIDTH 12 0
BBX 5 11 2 8
BITMAP
30
00
F0
00
00
30
00
30
00
78
78
ENDCHAR
STARTCHAR ordmasculine
ENCODING 186
SWIDTH 500 0
DWIDTH 12 0
BBX 10 16 0 1
BITMAP
7F00
0000
0000
C180
0000
C1C0
0000
C180
C180
0000
7F00
0000
0000
0000
0000
FF80
ENDCHAR
STARTCHAR guillemotright
ENCODING 187
SWIDTH 500 0
DWIDTH 12 0
BBX 9 16 0 1
BITMAP
CC00
0000
0000
6600
0000
3B00
0000
0D80
0D80
0000
3B00
0000
7600
0000
0000
CC00
ENDCHAR
STARTCHAR onequarter
ENCODING 188
SWIDTH 500 0
DWIDTH 12 0
BBX 10 21 0 -4
BITMAP
7000
0000
0000
F300
0000
7600
0000
3C00
3C00
0000
3B00
0000
7700
0000
0000
CF00
0000
3FC0
0000
0300
0300
ENDCHAR
STARTCHAR onehalf
ENCODING 189
SWIDTH 500 0
DWIDTH 12 0
BBX 10 21 0 -4
BITMAP
7000
0000
0000
F300
0000
7600
0000
3C00
3C00
0000
3F00
0000
7DC0
0000
0000
C300
0000
0600
0000
0F80
0F80
ENDCHAR
STARTCHAR threequarters
ENCODING 190
SWIDTH 500 0
DWIDTH 12 0
BBX 10 21 0 -4
BITMAP
F800
0000
0000
CC00
0000
F800
0000
CC00
CC00
0000
FFC0
0000
0C00
0000
0000
0F00
0000
0C00
0000
0F80
0F80
ENDCHAR
STARTCHAR questiondown
ENCODING 191
SWIDTH 500 0
DWIDTH 12 0
BBX 10 16 0 1
BITMAP
0C00
0000
0000
0000
0000
0C00
0000
0C00
0C00
0000
7800
0000
C1C0
0000
0000
7F00
ENDCHAR
STARTCHAR Agrave
ENCODING 192
SWIDTH 500 0
DWIDTH 12 0
BBX 10 18 0 1
BITMAP
3C00
0000
0700
0000
0000
0C00
0000
3E00
0000
6300
6300
0000
FFC0
0000
C1C0
0000
0000
C180
ENDCHAR
STARTCHAR Aacute
ENCODING 193
SWIDTH 500 0
DWIDTH 12 0
BBX 10 18 0 1
BITMAP
0E00
0000
7800
0000
0000
0C00
0000
3E00
0000
6300
6300
0000
FFC0
0000
C1C0
0000
0000
C180
ENDCHAR
STARTCHAR Acircumflex
ENCODING 194
SWIDTH 500 0
DWIDTH 12 0
BBX 10 18 0 1
BITMAP
3E00
0000
7300
0000
0000
0C00
0000
3E00
0000
6300
6300
0000
FFC0
0000
C1C0
0000
0000
C180
ENDCHAR
STARTCHAR Atilde
ENCODING 195
SWIDTH 500 0
DWIDTH 12 0
BBX 10 18 0 1
BITMAP
3DC0
0000
7700
0000
0000
0C00
0000
3E00
0000
6300
6300
0000
FFC0
0000
C1C0
0000
0000
C180
ENDCHAR
STARTCHAR Adieresis
ENCODING 196
SWIDTH 500 0
DWIDTH 12 0
BBX 10 18 0 1
BITMAP
7300
0000
0000
0000
0000
0C00
0000
3E00
0000
6300
6300
0000
FFC0
0000
C1C0
0000
0000
C180
ENDCHAR
STARTCHAR Aring
ENCODING 197
SWIDTH 500 0
DWIDTH 12 0
BBX 10 18 0 1
BITMAP
3E00
0000
7300
0000
0000
3E00
0000
3E00
0000
6300
6300
0000
FFC0
0000
C1C0
0000
0000
C180
ENDCHAR
STARTCHAR AE
ENCODING 198
SWIDTH 500 0
DWIDTH 12 0
BBX 10 16 0 1
BITMAP
1F80
0000
0000
7C00
0000
CC00
0000
CF00
CF00
0000
FC00
0000
CC00
0000
0000
CFC0
ENDCHAR
STARTCHAR Ccedilla
ENCODING 199
SWIDTH 500 0
DWIDTH 12 0
BBX 10 21 0 -4
BITMAP
3F00
0000
0000
6180
0000
C000
0000
C000
C000
0000
C000
0000
71C0
0000
0000
3F00
0000
0600
0000
1E00
1E00
ENDCHAR
STARTCHAR Egrave
ENCODING 200
SWIDTH 500 0
DWIDTH 12 0
BBX 9 18 0 1
BITMAP
7800
0000
0E00
0000
0000
FF80
0000
C000
0000
7A00
3C00
0000
C000
0000
C000
0000
0000
FF80
ENDCHAR
STARTCHAR Eacute
ENCODING 201
SWIDTH 500 0
DWIDTH 12 0
BBX 9 18 0 1
BITMAP
0700
0000
3C00
0000
0000
FF80
0000
C000
0000
7A00
3C00
0000
C000
0000
C000
0000
0000
FF80
ENDCHAR
STARTCHAR Ecircumflex
ENCODING 202
SWIDTH 500 0
DWIDTH 12 0
BBX 9 18 0 1
BITMAP
3E00
0000
7300
0000
0000
FF80
0000
C000
0000
FC00
FC00
0000
C000
0000
C000
0000
0000
FF80
ENDCHAR
STARTCHAR Edieresis
ENCODING 203
SWIDTH 500 0
DWIDTH 12 0
BBX 9 18 0 1
BITMAP
7300
0000
0000
0000
0000
FF80
0000
C000
0000
7A00
3C00
0000
C000
0000
C000
0000
0000
FF80
ENDCHAR
STARTCHAR Igrave
ENCODING 204
SWIDTH 500 0
DWIDTH 12 0
BBX 7 18 1 1
BITMAP
78
00
0E
00
00
FE
00
18
00
18
18
00
18
00
18
00
00
FE
ENDCHAR
STARTCHAR Iacute
ENCODING 205
SWIDTH 500 0
DWIDTH 12 0
BBX 7 18 1 1
BITMAP
1C
00
F0
00
00
FE
00
18
00
18
18
00
18
00
18
00
00
FE
ENDCHAR
STARTCHAR Icircumflex
ENCODING 206
SWIDTH 500 0
DWIDTH 12 0
BBX 7 18 1 1
BITMAP
7C
00
E6
00
00
FE
00
18
00
18
18
00
18
00
18
00
00
FE
ENDCHAR
STARTCHAR Idieresis
ENCODING 207
SWIDTH 500 0
DWIDTH 12 0
BBX 7 18 1 1
BITMAP
E6
00
00
00
00
FE
00
18
00
18
18
00
18
00
18
00
00
FE
ENDCHAR
STARTCHAR Eth
ENCODING 208
SWIDTH 500 0
DWIDTH 12 0
BBX 10 21 0 -4
BITMAP
F800
0000
0000
CC00
0000
CC00
0000
CC00
CC00
0000
FF00
0000
0DC0
0000
0000
0D80
0000
0DC0
0000
0700
0700
ENDCHAR
STARTCHAR Ntilde
ENCODING 209
SWIDTH 500 0
DWIDTH 12 0
BBX 10 18 0 1
BITMAP
3DC0
0000
7700
0000
0000
F180
0000
F9C0
0000
CD80
CD80
0000
C7C0
0000
C3C0
0000
0000
C180
ENDCHAR
STARTCHAR Ograve
ENCODING 210
SWIDTH 500 0
DWIDTH 12 0
BBX 10 18 0 1
BITMAP
3C00
0000
0700
0000
0000
7F00
0000
C1C0
0000
C180
C180
0000
C1C0
0000
C1C0
0000
0000
7F00
ENDCHAR
STARTCHAR Oacute
ENCODING 211
SWIDTH 500 0
DWIDTH 12 0
BBX 10 18 0 1
BITMAP
0E00
0000
7800
0000
0000
7F00
0000
C1C0
0000
C180
C180
0000
C1C0
0000
C1C0
0000
0000
7F00
ENDCHAR
STARTCHAR Ocircumflex
ENCODING 212
SWIDTH 500 0
DWIDTH 12 0
BBX 10 18 0 1
BITMAP
3E00
0000
7300
0000
0000
7F00
0000
C1C0
0000
C180
C180
0000
C1C0
0000
C1C0
0000
0000
7F00
ENDCHAR
STARTCHAR Otilde
ENCODING 213
SWIDTH 500 0
DWIDTH 12 0
BBX 10 18 0 1
BITMAP
7B00
0000
CE00
0000
0000
7F00
0000
C1C0
0000
C180
C180
0000
C1C0
0000
C1C0
0000
0000
7F00
ENDCHAR
STARTCHAR Odieresis
ENCODING 214
SWIDTH 500 0
DWIDTH 12 0
BBX 10 18 0 1
BITMAP
7300
0000
0000
0000
0000
7F00
0000
C1C0
0000
C180
C180
0000
C1C0
0000
C1C0
0000
0000
7F00
ENDCHAR
STARTCHAR multiply
ENCODING 215
SWIDTH 500 0
DWIDTH 12 0
BBX 9 16 0 1
BITMAP
7F80
0000
0000
CC00
0000
CC00
0000
CF00
CF00
0000
CC00
0000
CC00
0000
0000
7F80
ENDCHAR
STARTCHAR Oslash
ENCODING 216
SWIDTH 500 0
DWIDTH 12 0
BBX 10 20 0 -1
BITMAP
01C0
0000
7F00
0000
0000
C3C0
0000
C7C0
0000
CD80
CD80
0000
F9C0
0000
F1C0
0000
0000
7F00
0000
C000
ENDCHAR
STARTCHAR Ugrave
ENCODING 217
SWIDTH 500 0
DWIDTH 12 0
BBX 10 18 0 1
BITMAP
7800
0000
0E00
0000
0000
C180
0000
C1C0
0000
C180
C180
0000
C1C0
0000
C1C0
0000
0000
7F00
ENDCHAR
STARTCHAR Uacute
ENCODING 218
SWIDTH 500 0
DWIDTH 12 0
BBX 10 18 0 1
BITMAP
0700
0000
3C00
0000
0000
C180
0000
C1C0
0000
C180
C180
0000
C1C0
0000
C1C0
0000
0000
7F00
ENDCHAR
STARTCHAR Ucircumflex
ENCODING 219
SWIDTH 500 0
DWIDTH 12 0
BBX 10 18 0 1
BITMAP
0C00
0000
3E00
0000
0000
C180
0000
C1C0
0000
C180
C180
0000
C1C0
0000
C1C0
0000
0000
7F00
ENDCHAR
STARTCHAR Udieresis
ENCODING 220
SWIDTH 500 0
DWIDTH 12 0
BBX 10 18 0 1
BITMAP
7300
0000
0000
0000
0000
C180
0000
C1C0
0000
C180
C180
0000
C1C0
0000
C1C0
0000
0000
7F00
ENDCHAR
STARTCHAR Yacute
ENCODING 221
SWIDTH 500 0
DWIDTH 12 0
BBX 9 18 0 1
BITMAP
7300
0000
0000
0000
0000
C180
0000
7300
0000
1E00
1E00
0000
0C00
0000
0C00
0000
0000
0C00
ENDCHAR
STARTCHAR Thorn
ENCODING 222
SWIDTH 500 0
DWIDTH 12 0
BBX 10 21 0 -4
BITMAP
F800
0000
0000
CC00
0000
CC00
0000
CC00
CC00
0000
FFC0
0000
0C00
0000
0000
0F00
0000
0C00
0000
0F80
0F80
ENDCHAR
STARTCHAR germandbls
ENCODING 223
SWIDTH 500 0
DWIDTH 12 0
BBX 10 18 0 -1
BITMAP
3E00
0000
0000
6300
0000
C300
0000
7A00
3C00
0000
C300
0000
F9C0
0000
0000
CF00
0000
C000
ENDCHAR
STARTCHAR agrave
ENCODING 224
SWIDTH 500 0
DWIDTH 12 0
BBX 10 16 0 1
BITMAP
3C00
0000
0000
0700
0000
7F00
0000
0180
0180
0000
7FC0
0000
C3C0
0000
0000
7F80
ENDCHAR
STARTCHAR aacute
ENCODING 225
SWIDTH 500 0
DWIDTH 12 0
BBX 10 16 0 1
BITMAP
0E00
0000
0000
7800
0000
7F00
0000
0180
0180
0000
7FC0
0000
C3C0
0000
0000
7F80
ENDCHAR
STARTCHAR acircumflex
ENCODING 226
SWIDTH 500 0
DWIDTH 12 0
BBX 10 18 0 1
BITMAP
3E00
0000
7300
0000
0000
0000
0000
7F00
0000
0180
0180
0000
7FC0
0000
C3C0
0000
0000
7F80
ENDCHAR
STARTCHAR atilde
ENCODING 227
SWIDTH 500 0
DWIDTH 12 0
BBX 10 18 0 1
BITMAP
3DC0
0000
7700
0000
0000
0000
0000
7F00
0000
0180
0180
0000
7FC0
0000
C3C0
0000
0000
7F80
ENDCHAR
STARTCHAR adieresis
ENCODING 228
SWIDTH 500 0
DWIDTH 12 0
BBX 10 16 0 1
BITMAP
7300
0000
0000
0000
0000
7F00
0000
0180
0180
0000
7FC0
0000
C3C0
0000
0000
7F80
ENDCHAR
STARTCHAR aring
ENCODING 229
SWIDTH 500 0
DWIDTH 12 0
BBX 10 18 0 1
BITMAP
3E00
0000
7300
0000
0000
3E00
0000
7F00
0000
0180
0180
0000
7FC0
0000
C3C0
0000
0000
7F80
ENDCHAR
STARTCHAR ae
ENCODING 230
SWIDTH 500 0
DWIDTH 12 0
BBX 10 11 0 1
BITMAP
7F00
0000
0D80
0D80
0000
7FC0
0000
CC00
0000
0000
7F80
ENDCHAR
STARTCHAR ccedilla
ENCODING 231
SWIDTH 500 0
DWIDTH 12 0
BBX 10 16 0 -4
BITMAP
7F00
0000
C180
C180
0000
C000
0000
C1C0
0000
0000
7F00
0000
0600
0000
1E00
1E00
ENDCHAR
STARTCHAR egrave
ENCODING 232
SWIDTH 500 0
DWIDTH 12 0
BBX 10 16 0 1
BITMAP
3C00
0000
0000
0700
0000
7F00
0000
C180
C180
0000
FFC0
0000
C000
0000
0000
7F00
ENDCHAR
STARTCHAR eacute
ENCODING 233
SWIDTH 500 0
DWIDTH 12 0
BBX 10 16 0 1
BITMAP
0E00
0000
0000
7800
0000
7F00
0000
C180
C180
0000
FFC0
0000
C000
0000
0000
7F00
ENDCHAR
STARTCHAR ecircumflex
ENCODING 234
SWIDTH 500 0
DWIDTH 12 0
BBX 10 18 0 1
BITMAP
3E00
0000
7300
0000
0000
0000
0000
7F00
0000
C180
C180
0000
FFC0
0000
C000
0000
0000
7F00
ENDCHAR
STARTCHAR edieresis
ENCODING 235
SWIDTH 500 0
DWIDTH 12 0
BBX 10 16 0 1
BITMAP
7300
0000
0000
0000
0000
7F00
0000
C180
C180
0000
FFC0
0000
C000
0000
0000
7F00
ENDCHAR
STARTCHAR igrave
ENCODING 236
SWIDTH 500 0
DWIDTH 12 0
BBX 7 16 1 1
BITMAP
F0
00
00
1C
00
78
00
18
18
00
18
00
18
00
00
FE
ENDCHAR
STARTCHAR iacute
ENCODING 237
SWIDTH 500 0
DWIDTH 12 0
BBX 7 16 1 1
BITMAP
1C
00
00
F0
00
78
00
18
18
00
18
00
18
00
00
FE
ENDCHAR
STARTCHAR icircumflex
ENCODING 238
SWIDTH 500 0
DWIDTH 12 0
BBX 7 18 1 1
BITMAP
7C
00
E6
00
00
00
00
78
00
18
18
00
18
00
18
00
00
FE
ENDCHAR
STARTCHAR idieresis
ENCODING 239
SWIDTH 500 0
DWIDTH 12 0
BBX 7 16 1 1
BITMAP
E6
00
00
00
00
78
00
18
18
00
18
00
18
00
00
FE
ENDCHAR
STARTCHAR eth
ENCODING 240
SWIDTH 500 0
DWIDTH 12 0
BBX 10 21 0 -4
BITMAP
FC00
0000
0000
C000
0000
F800
0000
C000
C000
0000
C700
0000
0DC0
0000
0000
0D80
0000
0DC0
0000
0700
0700
ENDCHAR
STARTCHAR ntilde
ENCODING 241
SWIDTH 500 0
DWIDTH 12 0
BBX 10 18 0 1
BITMAP
7B00
0000
CE00
0000
0000
0000
0000
FF00
0000
E180
E180
0000
C1C0
0000
C1C0
0000
0000
C180
ENDCHAR
STARTCHAR ograve
ENCODING 242
SWIDTH 500 0
DWIDTH 12 0
BBX 10 16 0 1
BITMAP
3C00
0000
0000
0700
0000
7F00
0000
C180
C180
0000
C1C0
0000
C1C0
0000
0000
7F00
ENDCHAR
STARTCHAR oacute
ENCODING 243
SWIDTH 500 0
DWIDTH 12 0
BBX 10 16 0 1
BITMAP
0E00
0000
0000
7800
0000
7F00
0000
C180
C180
0000
C1C0
0000
C1C0
0000
0000
7F00
ENDCHAR
STARTCHAR ocircumflex
ENCODING 244
SWIDTH 500 0
DWIDTH 12 0
BBX 10 18 0 1
BITMAP
3E00
0000
7300
0000
0000
0000
0000
7F00
0000
C180
C180
0000
C1C0
0000
C1C0
0000
0000
7F00
ENDCHAR
STARTCHAR otilde
ENCODING 245
SWIDTH 500 0
DWIDTH 12 0
BBX 10 18 0 1
BITMAP
7B00
0000
CE00
0000
0000
0000
0000
7F00
0000
C180
C180
0000
C1C0
0000
C1C0
0000
0000
7F00
ENDCHAR
STARTCHAR odieresis
ENCODING 246
SWIDTH 500 0
DWIDTH 12 0
BBX 10 16 0 1
BITMAP
7300
0000
0000
0000
0000
7F00
0000
C180
C180
0000
C1C0
0000
C1C0
0000
0000
7F00
ENDCHAR
STARTCHAR divide
ENCODING 247
SWIDTH 500 0
DWIDTH 12 0
BBX 10 11 0 1
BITMAP
7F00
0000
CD80
CD80
0000
CFC0
0000
CC00
0000
0000
7F80
ENDCHAR
STARTCHAR oslash
ENCODING 248
SWIDTH 500 0
DWIDTH 12 0
BBX 10 15 0 -1
BITMAP
0180
0000
7F00
0000
C780
C780
0000
CDC0
0000
F9C0
0000
0000
7F00
0000
C000
ENDCHAR
STARTCHAR ugrave
ENCODING 249
SWIDTH 500 0
DWIDTH 12 0
BBX 9 16 0 1
BITMAP
7800
0000
0000
0E00
0000
C300
0000
C300
C300
0000
C300
0000
C300
0000
0000
7F80
ENDCHAR
STARTCHAR uacute
ENCODING 250
SWIDTH 500 0
DWIDTH 12 0
BBX 9 16 0 1
BITMAP
0E00
0000
0000
7800
0000
C300
0000
C300
C300
0000
C300
0000
C300
0000
0000
7F80
ENDCHAR
STARTCHAR ucircumflex
ENCODING 251
SWIDTH 500 0
DWIDTH 12 0
BBX 9 18 0 1
BITMAP
3E00
0000
7300
0000
0000
0000
0000
C300
0000
C300
C300
0000
C300
0000
C300
0000
0000
7F80
ENDCHAR
STARTCHAR udieresis
ENCODING 252
SWIDTH 500 0
DWIDTH 12 0
BBX 9 16 0 1
BITMAP
7300
0000
0000
0000
0000
C300
0000
C300
C300
0000
C300
0000
C300
0000
0000
7F80
ENDCHAR
STARTCHAR yacute
ENCODING 253
SWIDTH 500 0
DWIDTH 12 0
BBX 8 21 0 -4
BITMAP
73
00
00
00
00
C3
00
C3
C3
00
C7
00
7F
00
00
03
00
C3
00
3E
3E
ENDCHAR
STARTCHAR thorn
ENCODING 254
SWIDTH 500 0
DWIDTH 12 0
BBX 10 21 0 -4
BITMAP
FC00
0000
0000
C000
0000
F800
0000
C000
C000
0000
CFC0
0000
0C00
0000
0000
0F00
0000
0C00
0000
0F80
0F80
ENDCHAR
STARTCHAR ydieresis
ENCODING 255
SWIDTH 500 0
DWIDTH 12 0
BBX 10 16 0 1
BITMAP
FF80
0000
0000
C180
0000
C1C0
0000
C180
C180
0000
C1C0
0000
C1C0
0000
0000
FF80
ENDCHAR
STARTCHAR NameMe.320
ENCODING 1025
SWIDTH 500 0
DWIDTH 12 0
BBX 9 18 0 1
BITMAP
7300
0000
0000
0000
0000
FF80
0000
C000
0000
7A00
3C00
0000
C000
0000
C000
0000
0000
FF80
ENDCHAR
STARTCHAR afii10034
ENCODING 1040
SWIDTH 500 0
DWIDTH 12 0
BBX 10 16 0 1
BITMAP
0FC0
0000
0000
1980
0000
71C0
0000
C180
C180
0000
FFC0
0000
C1C0
0000
0000
C180
ENDCHAR
STARTCHAR NameMe.257
ENCODING 1041
SWIDTH 500 0
DWIDTH 12 0
BBX 10 16 0 1
BITMAP
FF80
0000
0000
C000
0000
C000
0000
3C00
3E00
0000
C1C0
0000
C1C0
0000
0000
FF00
ENDCHAR
STARTCHAR NameMe.258
ENCODING 1042
SWIDTH 500 0
DWIDTH 12 0
BBX 10 16 0 1
BITMAP
FE00
0000
0000
C300
0000
C300
0000
3C00
3E00
0000
C1C0
0000
C1C0
0000
0000
FF00
ENDCHAR
STARTCHAR NameMe.259
ENCODING 1043
SWIDTH 500 0
DWIDTH 12 0
BBX 9 16 0 1
BITMAP
FF80
0000
0000
C000
0000
C000
0000
C000
C000
0000
C000
0000
C000
0000
0000
C000
ENDCHAR
STARTCHAR NameMe.260
ENCODING 1044
SWIDTH 500 0
DWIDTH 12 0
BBX 10 18 0 -1
BITMAP
3F00
0000
0000
6300
0000
7300
0000
6300
6300
0000
7300
0000
7300
0000
0000
FF80
0000
C1C0
ENDCHAR
STARTCHAR NameMe.261
ENCODING 1045
SWIDTH 500 0
DWIDTH 12 0
BBX 9 16 0 1
BITMAP
FF80
0000
0000
C000
0000
C000
0000
3E00
1F00
0000
C000
0000
C000
0000
0000
FF80
ENDCHAR
STARTCHAR NameMe.262
ENCODING 1046
SWIDTH 500 0
DWIDTH 12 0
BBX 10 16 0 1
BITMAP
CDC0
0000
0000
CD80
0000
7F00
0000
1E00
1E00
0000
7F00
0000
CDC0
0000
0000
CD80
ENDCHAR
STARTCHAR NameMe.263
ENCODING 1047
SWIDTH 500 0
DWIDTH 12 0
BBX 10 16 0 1
BITMAP
7F00
0000
0000
C180
0000
01C0
0000
0F00
0F00
0000
01C0
0000
C1C0
0000
0000
7F00
ENDCHAR
STARTCHAR NameMe.264
ENCODING 1048
SWIDTH 500 0
DWIDTH 12 0
BBX 10 16 0 1
BITMAP
C1C0
0000
0000
C3C0
0000
C7C0
0000
CD80
CD80
0000
F9C0
0000
F1C0
0000
0000
C180
ENDCHAR
STARTCHAR NameMe.265
ENCODING 1049
SWIDTH 500 0
DWIDTH 12 0
BBX 10 18 0 1
BITMAP
0E00
0000
CDC0
0000
0000
C3C0
0000
C7C0
0000
CD80
CD80
0000
F9C0
0000
F1C0
0000
0000
C180
ENDCHAR
STARTCHAR NameMe.266
ENCODING 1050
SWIDTH 500 0
DWIDTH 12 0
BBX 10 16 0 1
BITMAP
C1C0
0000
0000
C180
0000
C700
0000
FC00
FC00
0000
C700
0000
C1C0
0000
0000
C180
ENDCHAR
STARTCHAR NameMe.267
ENCODING 1051
SWIDTH 500 0
DWIDTH 12 0
BBX 10 16 0 1
BITMAP
0FC0
0000
0000
1980
0000
71C0
0000
C180
C180
0000
C1C0
0000
C1C0
0000
0000
C180
ENDCHAR
STARTCHAR NameMe.268
ENCODING 1052
SWIDTH 500 0
DWIDTH 12 0
BBX 10 16 0 1
BITMAP
C1C0
0000
0000
F3C0
0000
FFC0
0000
CD80
CD80
0000
CDC0
0000
C1C0
0000
0000
C180
ENDCHAR
STARTCHAR NameMe.269
ENCODING 1053
SWIDTH 500 0
DWIDTH 12 0
BBX 10 16 0 1
BITMAP
C1C0
0000
0000
C180
0000
C1C0
0000
C180
C180
0000
FFC0
0000
C1C0
0000
0000
C180
ENDCHAR
STARTCHAR NameMe.270
ENCODING 1054
SWIDTH 500 0
DWIDTH 12 0
BBX 10 16 0 1
BITMAP
7F00
0000
0000
C180
0000
C1C0
0000
C180
C180
0000
C1C0
0000
C1C0
0000
0000
7F00
ENDCHAR
STARTCHAR NameMe.271
ENCODING 1055
SWIDTH 500 0
DWIDTH 12 0
BBX 10 16 0 1
BITMAP
FF80
0000
0000
C180
0000
C1C0
0000
C180
C180
0000
C1C0
0000
C1C0
0000
0000
C180
ENDCHAR
STARTCHAR NameMe.272
ENCODING 1056
SWIDTH 500 0
DWIDTH 12 0
BBX 10 16 0 1
BITMAP
FF00
0000
0000
C180
0000
C1C0
0000
C180
C180
0000
FF00
0000
C000
0000
0000
C000
ENDCHAR
STARTCHAR NameMe.273
ENCODING 1057
SWIDTH 500 0
DWIDTH 12 0
BBX 9 16 0 1
BITMAP
7F80
0000
0000
C000
0000
C000
0000
C000
C000
0000
C000
0000
C000
0000
0000
7F80
ENDCHAR
STARTCHAR NameMe.274
ENCODING 1058
SWIDTH 500 0
DWIDTH 12 0
BBX 9 16 0 1
BITMAP
FF80
0000
0000
CD80
0000
0C00
0000
0C00
0C00
0000
0C00
0000
0C00
0000
0000
0C00
ENDCHAR
STARTCHAR NameMe.275
ENCODING 1059
SWIDTH 500 0
DWIDTH 12 0
BBX 10 16 0 1
BITMAP
C1C0
0000
0000
C180
0000
C1C0
0000
1E00
1F00
0000
01C0
0000
C1C0
0000
0000
7F00
ENDCHAR
STARTCHAR NameMe.276
ENCODING 1060
SWIDTH 500 0
DWIDTH 12 0
BBX 10 16 0 1
BITMAP
0C00
0000
0000
7F00
0000
CDC0
0000
CD80
CD80
0000
CDC0
0000
7F00
0000
0000
0C00
ENDCHAR
STARTCHAR NameMe.277
ENCODING 1061
SWIDTH 500 0
DWIDTH 12 0
BBX 10 16 0 1
BITMAP
C1C0
0000
0000
C180
0000
3E00
0000
0C00
0C00
0000
3E00
0000
C1C0
0000
0000
C180
ENDCHAR
STARTCHAR NameMe.278
ENCODING 1062
SWIDTH 500 0
DWIDTH 12 0
BBX 10 18 0 -1
BITMAP
C300
0000
0000
C300
0000
C300
0000
C300
C300
0000
C300
0000
C300
0000
0000
FF80
0000
01C0
ENDCHAR
STARTCHAR NameMe.279
ENCODING 1063
SWIDTH 500 0
DWIDTH 12 0
BBX 10 16 0 1
BITMAP
C1C0
0000
0000
C180
0000
C1C0
0000
3E00
1F00
0000
01C0
0000
01C0
0000
0000
0180
ENDCHAR
STARTCHAR NameMe.280
ENCODING 1064
SWIDTH 500 0
DWIDTH 12 0
BBX 10 16 0 1
BITMAP
CDC0
0000
0000
CD80
0000
CDC0
0000
CD80
CD80
0000
CDC0
0000
CDC0
0000
0000
FF80
ENDCHAR
STARTCHAR NameMe.281
ENCODING 1065
SWIDTH 500 0
DWIDTH 12 0
BBX 10 18 0 -1
BITMAP
CDC0
0000
0000
CD80
0000
CDC0
0000
CD80
CD80
0000
CDC0
0000
CDC0
0000
0000
FF80
0000
01C0
ENDCHAR
STARTCHAR NameMe.282
ENCODING 1066
SWIDTH 500 0
DWIDTH 12 0
BBX 10 16 0 1
BITMAP
E000
0000
0000
E000
0000
7000
0000
7C00
3E00
0000
71C0
0000
71C0
0000
0000
7F00
ENDCHAR
STARTCHAR NameMe.283
ENCODING 1067
SWIDTH 500 0
DWIDTH 12 0
BBX 10 16 0 1
BITMAP
C1C0
0000
0000
C180
0000
C1C0
0000
FD80
FD80
0000
C7C0
0000
C780
0000
0000
FD80
ENDCHAR
STARTCHAR NameMe.284
ENCODING 1068
SWIDTH 500 0
DWIDTH 12 0
BBX 10 16 0 1
BITMAP
C000
0000
0000
C000
0000
C000
0000
3C00
3E00
0000
C1C0
0000
C1C0
0000
0000
FF00
ENDCHAR
STARTCHAR NameMe.285
ENCODING 1069
SWIDTH 500 0
DWIDTH 12 0
BBX 10 16 0 1
BITMAP
FF00
0000
0000
0180
0000
01C0
0000
1F00
0F80
0000
01C0
0000
01C0
0000
0000
FF00
ENDCHAR
STARTCHAR NameMe.286
ENCODING 1070
SWIDTH 500 0
DWIDTH 12 0
BBX 10 16 0 1
BITMAP
CF00
0000
0000
F980
0000
F9C0
0000
F180
F180
0000
F9C0
0000
F9C0
0000
0000
CF00
ENDCHAR
STARTCHAR NameMe.287
ENCODING 1071
SWIDTH 500 0
DWIDTH 12 0
BBX 10 16 0 1
BITMAP
7F80
0000
0000
C180
0000
C1C0
0000
1E00
1F00
0000
39C0
0000
71C0
0000
0000
C180
ENDCHAR
STARTCHAR NameMe.288
ENCODING 1072
SWIDTH 500 0
DWIDTH 12 0
BBX 9 11 0 1
BITMAP
7E00
0000
0300
0300
0000
7F00
0000
C300
0000
0000
7F80
ENDCHAR
STARTCHAR NameMe.289
ENCODING 1073
SWIDTH 500 0
DWIDTH 12 0
BBX 10 16 0 1
BITMAP
7F80
0000
0000
1800
0000
0E00
0000
3E00
1F00
0000
C1C0
0000
C1C0
0000
0000
7F00
ENDCHAR
STARTCHAR NameMe.290
ENCODING 1074
SWIDTH 500 0
DWIDTH 12 0
BBX 10 16 0 1
BITMAP
7C00
0000
0000
C600
0000
CC00
0000
3C00
3E00
0000
C1C0
0000
C1C0
0000
0000
7F00
ENDCHAR
STARTCHAR NameMe.291
ENCODING 1075
SWIDTH 500 0
DWIDTH 12 0
BBX 9 11 0 1
BITMAP
7F00
0000
0180
0180
0000
7F00
0000
C000
0000
0000
7F80
ENDCHAR
STARTCHAR NameMe.292
ENCODING 1076
SWIDTH 500 0
DWIDTH 12 0
BBX 10 16 0 1
BITMAP
7F00
0000
0000
C180
0000
01C0
0000
1E00
1F00
0000
C1C0
0000
C1C0
0000
0000
7F00
ENDCHAR
STARTCHAR NameMe.293
ENCODING 1077
SWIDTH 500 0
DWIDTH 12 0
BBX 10 11 0 1
BITMAP
7F00
0000
C180
C180
0000
FFC0
0000
C000
0000
0000
7F00
ENDCHAR
STARTCHAR NameMe.294
ENCODING 1078
SWIDTH 500 0
DWIDTH 12 0
BBX 10 11 0 1
BITMAP
CDC0
0000
3E00
1F00
0000
3E00
0000
7F00
0000
0000
CD80
ENDCHAR
STARTCHAR NameMe.295
ENCODING 1079
SWIDTH 500 0
DWIDTH 12 0
BBX 10 11 0 1
BITMAP
7F00
0000
C180
C180
0000
0F00
0000
C1C0
0000
0000
7F00
ENDCHAR
STARTCHAR NameMe.296
ENCODING 1080
SWIDTH 500 0
DWIDTH 12 0
BBX 9 11 0 1
BITMAP
C300
0000
C300
C300
0000
C300
0000
C700
0000
0000
7F80
ENDCHAR
STARTCHAR NameMe.297
ENCODING 1081
SWIDTH 500 0
DWIDTH 12 0
BBX 9 13 0 1
BITMAP
0C00
0000
C300
0000
C300
C300
0000
C300
0000
C700
0000
0000
7F80
ENDCHAR
STARTCHAR NameMe.298
ENCODING 1082
SWIDTH 500 0
DWIDTH 12 0
BBX 10 11 0 1
BITMAP
C1C0
0000
C700
C700
0000
FC00
0000
C700
0000
0000
C180
ENDCHAR
STARTCHAR NameMe.299
ENCODING 1083
SWIDTH 500 0
DWIDTH 12 0
BBX 10 11 0 1
BITMAP
0FC0
0000
1980
1980
0000
39C0
0000
39C0
0000
0000
F180
ENDCHAR
STARTCHAR NameMe.300
ENCODING 1084
SWIDTH 500 0
DWIDTH 12 0
BBX 10 11 0 1
BITMAP
C1C0
0000
E380
E380
0000
FFC0
0000
CDC0
0000
0000
C180
ENDCHAR
STARTCHAR NameMe.301
ENCODING 1085
SWIDTH 500 0
DWIDTH 12 0
BBX 10 11 0 1
BITMAP
C1C0
0000
C180
C180
0000
FFC0
0000
C1C0
0000
0000
C180
ENDCHAR
STARTCHAR NameMe.302
ENCODING 1086
SWIDTH 500 0
DWIDTH 12 0
BBX 10 11 0 1
BITMAP
7F00
0000
C180
C180
0000
C1C0
0000
C1C0
0000
0000
7F00
ENDCHAR
STARTCHAR NameMe.303
ENCODING 1087
SWIDTH 500 0
DWIDTH 12 0
BBX 10 11 0 1
BITMAP
FE00
0000
E300
E300
0000
C300
0000
C300
0000
0000
C3C0
ENDCHAR
STARTCHAR NameMe.304
ENCODING 1088
SWIDTH 500 0
DWIDTH 12 0
BBX 10 13 0 -1
BITMAP
FF00
0000
C180
C180
0000
C1C0
0000
FF00
0000
0000
C000
0000
C000
ENDCHAR
STARTCHAR NameMe.305
ENCODING 1089
SWIDTH 500 0
DWIDTH 12 0
BBX 10 11 0 1
BITMAP
7F00
0000
C180
C180
0000
C000
0000
C1C0
0000
0000
7F00
ENDCHAR
STARTCHAR NameMe.306
ENCODING 1090
SWIDTH 500 0
DWIDTH 12 0
BBX 10 11 0 1
BITMAP
FFC0
0000
0C00
0C00
0000
0C00
0000
0C00
0000
0000
0C00
ENDCHAR
STARTCHAR NameMe.307
ENCODING 1091
SWIDTH 500 0
DWIDTH 12 0
BBX 10 13 0 -1
BITMAP
C1C0
0000
C180
C180
0000
C1C0
0000
7F80
0000
0000
0180
0000
FF00
ENDCHAR
STARTCHAR NameMe.308
ENCODING 1092
SWIDTH 500 0
DWIDTH 12 0
BBX 10 11 0 1
BITMAP
0C00
0000
3E00
1F00
0000
CDC0
0000
7F00
0000
0000
0C00
ENDCHAR
STARTCHAR NameMe.309
ENCODING 1093
SWIDTH 500 0
DWIDTH 12 0
BBX 10 11 0 1
BITMAP
C1C0
0000
1E00
1E00
0000
0C00
0000
3E00
0000
0000
C180
ENDCHAR
STARTCHAR NameMe.310
ENCODING 1094
SWIDTH 500 0
DWIDTH 12 0
BBX 10 13 0 -1
BITMAP
C300
0000
C300
C300
0000
C300
0000
C700
0000
0000
7D80
0000
01C0
ENDCHAR
STARTCHAR NameMe.311
ENCODING 1095
SWIDTH 500 0
DWIDTH 12 0
BBX 10 11 0 1
BITMAP
C1C0
0000
C180
C180
0000
FFC0
0000
01C0
0000
0000
0180
ENDCHAR
STARTCHAR NameMe.312
ENCODING 1096
SWIDTH 500 0
DWIDTH 12 0
BBX 10 11 0 1
BITMAP
CDC0
0000
CD80
CD80
0000
CDC0
0000
CDC0
0000
0000
FF80
ENDCHAR
STARTCHAR NameMe.313
ENCODING 1097
SWIDTH 500 0
DWIDTH 12 0
BBX 10 13 0 -1
BITMAP
CDC0
0000
CD80
CD80
0000
CDC0
0000
CDC0
0000
0000
FF80
0000
01C0
ENDCHAR
STARTCHAR NameMe.314
ENCODING 1098
SWIDTH 500 0
DWIDTH 12 0
BBX 10 11 0 1
BITMAP
F800
0000
1800
1800
0000
3F00
0000
39C0
0000
0000
3F00
ENDCHAR
STARTCHAR NameMe.315
ENCODING 1099
SWIDTH 500 0
DWIDTH 12 0
BBX 10 11 0 1
BITMAP
C1C0
0000
C180
C180
0000
FDC0
0000
C780
0000
0000
FD80
ENDCHAR
STARTCHAR NameMe.316
ENCODING 1100
SWIDTH 500 0
DWIDTH 12 0
BBX 10 11 0 1
BITMAP
C000
0000
C000
C000
0000
FF00
0000
C1C0
0000
0000
FF00
ENDCHAR
STARTCHAR NameMe.317
ENCODING 1101
SWIDTH 500 0
DWIDTH 12 0
BBX 10 11 0 1
BITMAP
7F00
0000
C180
C180
0000
0FC0
0000
C1C0
0000
0000
7F00
ENDCHAR
STARTCHAR NameMe.318
ENCODING 1102
SWIDTH 500 0
DWIDTH 12 0
BBX 10 11 0 1
BITMAP
CF00
0000
F180
F180
0000
F9C0
0000
F9C0
0000
0000
CF00
ENDCHAR
STARTCHAR NameMe.319
ENCODING 1103
SWIDTH 500 0
DWIDTH 12 0
BBX 10 11 0 1
BITMAP
7FC0
0000
C180
C180
0000
7FC0
0000
39C0
0000
0000
F180
ENDCHAR
STARTCHAR NameMe.321
ENCODING 1105
SWIDTH 500 0
DWIDTH 12 0
BBX 10 16 0 1
BITMAP
7300
0000
0000
0000
0000
7F00
0000
C180
C180
0000
FFC0
0000
C000
0000
0000
7F00
ENDCHAR
STARTCHAR .notdef
ENCODING -1
SWIDTH 500 0
DWIDTH 12 0
BBX 7 16 1 0
BITMAP
FE
82
82
82
82
82
82
82
82
82
82
82
82
82
82
FE
ENDCHAR
ENDFONT
